<svg width="212" height="264" viewBox="0 0 212 264" fill="none" xmlns="http://www.w3.org/2000/svg">
<path d="M160.077 28.6563L166.639 32.0078C169.344 33.3896 170.417 36.7026 169.035 39.4076L166.256 44.8493C164.874 47.5543 161.561 48.6269 158.856 47.2456L152.294 43.894C149.589 42.5124 148.516 39.1993 149.898 36.4942L152.677 31.0526C154.059 28.3474 157.372 27.2746 160.077 28.6563Z" fill="#397928" stroke="black" stroke-width="3"/>
<path d="M158.431 42.6986L160.048 43.6098C179.207 54.4034 187.666 77.5319 179.99 98.1393L172.095 119.339L151.046 158.693L134.159 186.193L116.229 209.995C102.306 228.477 76.8511 233.797 56.6905 222.439C32.0556 208.561 25.5696 175.999 43.0068 153.741L58.9919 133.337C61.1592 130.57 63.1223 127.649 64.8657 124.597L91.6282 77.7508C93.4042 74.6422 94.8209 71.341 95.8506 67.9121C103.813 41.3975 134.311 29.1103 158.431 42.6986Z" fill="#B7D55C" stroke="black" stroke-width="4"/>
<path d="M37.3578 195.503L39.9469 198.397L43.139 200.256L47.8044 202.972L53.0169 205.314L57.0017 206.94L63.7607 207.755L68.5941 208.489L77.1451 207.92L82.6935 206.297L88.1472 204.271L93.8076 201.326L98.6754 198.612L102.957 195.211L108.2 189.596L112.839 185.016L120.589 175.659L132.297 160.632L140.215 149.293L147.831 138.471L159.612 121.06L168.357 106.042L174.538 95.4251L177.002 86.1112L177.54 76.7163L178.661 83.2628L178.006 89.4694L176.86 95.3901L175.43 100.105L173.246 106.115L170.051 114.866L164.353 126.562L158.054 138.471L147.831 158.353L132.297 182.046L114.614 205.119L110.07 210.101L103.996 214.886L96.5434 219.215L91.4301 221.785L82.6723 223.274L74.6793 223.274L68.0812 222.534L62.083 220.135L57.0017 217.435L51.8861 213.836L47.0875 210.537L44.0884 206.94L41.0893 202.972L38.9087 198.486L37.3578 195.503Z" fill="#9CC54E" stroke="#9DC54E"/>
<rect x="116.855" y="65.9762" width="5.39839" height="11.3966" rx="2.6992" transform="rotate(27.0868 116.855 65.9762)" fill="#7CB343"/>
<rect x="71.7715" y="185.345" width="5.39839" height="11.3966" rx="2.6992" transform="rotate(27.0868 71.7715 185.345)" fill="#7CB343"/>
<rect x="83.7676" y="137.359" width="5.39839" height="11.3966" rx="2.6992" transform="rotate(27.0868 83.7676 137.359)" fill="#7CB343"/>
<rect x="126.355" y="135.56" width="5.39839" height="11.3966" rx="2.6992" transform="rotate(27.0868 126.355 135.56)" fill="#7CB343"/>
<rect x="163.543" y="78.5767" width="5.39839" height="11.3966" rx="2.6992" transform="rotate(27.0868 163.543 78.5767)" fill="#7CB343"/>
<rect x="126.955" y="100.77" width="5.39839" height="11.3966" rx="2.6992" transform="rotate(27.0868 126.955 100.77)" fill="#7CB343"/>
</svg>
